name GIL06_xslow1EmgEnv.mot
datacolumns 51
datarows 11
range 0.36759260 0.37685186
endheader
                time	   rect_fem_l_emgRec	   rect_fem_l_emgEnv	   rect_fem_l_emgAve	   rect_fem_l_emgSDp	   rect_fem_l_emgSDm	   rect_fem_r_emgRec	   rect_fem_r_emgEnv	   rect_fem_r_emgAve	   rect_fem_r_emgSDp	   rect_fem_r_emgSDm	   med_hams_l_emgRec	   med_hams_l_emgEnv	   med_hams_l_emgAve	   med_hams_l_emgSDp	   med_hams_l_emgSDm	   med_hams_r_emgRec	   med_hams_r_emgEnv	   med_hams_r_emgAve	   med_hams_r_emgSDp	   med_hams_r_emgSDm	   lat_hams_l_emgRec	   lat_hams_l_emgEnv	   lat_hams_l_emgAve	   lat_hams_l_emgSDp	   lat_hams_l_emgSDm	   lat_hams_r_emgRec	   lat_hams_r_emgEnv	   lat_hams_r_emgAve	   lat_hams_r_emgSDp	   lat_hams_r_emgSDm	    tib_ant_l_emgRec	    tib_ant_l_emgEnv	    tib_ant_l_emgAve	    tib_ant_l_emgSDp	    tib_ant_l_emgSDm	    tib_ant_r_emgRec	    tib_ant_r_emgEnv	    tib_ant_r_emgAve	    tib_ant_r_emgSDp	    tib_ant_r_emgSDm	    gas_sol_l_emgRec	    gas_sol_l_emgEnv	    gas_sol_l_emgAve	    gas_sol_l_emgSDp	    gas_sol_l_emgSDm	    gas_sol_r_emgRec	    gas_sol_r_emgEnv	    gas_sol_r_emgAve	    gas_sol_r_emgSDp	    gas_sol_r_emgSDm	
          0.36759260	          0.02090082	          0.00939742	          0.05793682	          0.07838228	          0.03749136	          0.05776338	          0.09496062	          0.17187178	          0.27689883	          0.06684473	          0.03245373	          0.04194095	          0.04104225	          0.06069740	          0.02138709	          0.06990718	          0.26950185	          0.11026999	          0.14041226	          0.08012772	          0.00047793	          0.03325865	          0.00511245	          0.02608209	         -0.01585719	          0.09373670	          0.23209368	          0.08179923	          0.08289885	          0.08069961	          0.00387828	          0.05139393	          0.04325075	          0.07506217	          0.01143934	          0.02511398	          0.16170510	          0.18317668	          0.37091468	         -0.00456132	          0.02316127	          0.15121861	          0.11281811	          0.13606199	          0.08957424	          0.00015426	          0.00074716	          0.00971540	          0.02027102	         -0.00084023	
          0.36851853	          0.00606383	          0.00892203	          0.05742867	          0.07741431	          0.03744302	          0.02108854	          0.09524871	          0.17195259	          0.27737785	          0.06652733	          0.04849373	          0.04221148	          0.04117842	          0.06060821	          0.02174862	          0.14956765	          0.26916860	          0.10951516	          0.13900495	          0.08002537	          0.00378925	          0.03389564	          0.00539528	          0.02644162	         -0.01565106	          0.12706465	          0.23162183	          0.08207316	          0.08274235	          0.08140397	          0.03942120	          0.05161363	          0.04295891	          0.07424620	          0.01167162	          0.03987975	          0.16263681	          0.18384472	          0.37109961	         -0.00341018	          0.06784151	          0.15098538	          0.11222847	          0.13467496	          0.08978198	          0.00150915	          0.00070871	          0.00973489	          0.02035331	         -0.00088353	
          0.36944446	          0.01265703	          0.00849409	          0.05691949	          0.07644367	          0.03739530	          0.08704003	          0.09546708	          0.17203355	          0.27785695	          0.06621015	          0.04205371	          0.04248135	          0.04132051	          0.06052398	          0.02211704	          0.23388700	          0.26859699	          0.10876531	          0.13760146	          0.07992917	          0.00586210	          0.03457258	          0.00568529	          0.02680648	         -0.01543591	          0.17126326	          0.23099169	          0.08234938	          0.08258817	          0.08211060	          0.06475894	          0.05182139	          0.04267581	          0.07343716	          0.01191446	          0.04410974	          0.16361963	          0.18451242	          0.37127680	         -0.00225195	          0.08086255	          0.15070901	          0.11163726	          0.13328587	          0.08998865	          0.00101739	          0.00067238	          0.00975448	          0.02043564	         -0.00092668	
          0.37037039	          0.00973235	          0.00811533	          0.05640945	          0.07547070	          0.03734821	          0.08209785	          0.09561621	          0.17211458	          0.27833602	          0.06589314	          0.03902630	          0.04275164	          0.04146844	          0.06044470	          0.02249218	          0.27022724	          0.26779009	          0.10802049	          0.13620198	          0.07983901	          0.00367804	          0.03528939	          0.00598232	          0.02717652	         -0.01521188	          0.21108707	          0.23020364	          0.08262789	          0.08243637	          0.08281940	          0.05176659	          0.05201611	          0.04240143	          0.07263518	          0.01216767	          0.03710667	          0.16465971	          0.18517971	          0.37144627	         -0.00108685	          0.07444644	          0.15038912	          0.11104478	          0.13189535	          0.09019421	          0.00011161	          0.00063834	          0.00977415	          0.02051797	         -0.00096968	
          0.37129632	          0.01265205	          0.00778737	          0.05589872	          0.07449573	          0.03730171	          0.08061394	          0.09569688	          0.17219566	          0.27881499	          0.06557632	          0.02761509	          0.04302347	          0.04162210	          0.06037034	          0.02287385	          0.22052243	          0.26675153	          0.10728071	          0.13480659	          0.07975483	          0.00723307	          0.03604584	          0.00628624	          0.02755162	         -0.01497913	          0.19405015	          0.22925850	          0.08290858	          0.08228694	          0.08353022	          0.02073229	          0.05219677	          0.04213572	          0.07184037	          0.01243107	          0.01397252	          0.16576325	          0.18584658	          0.37160803	          0.00008513	          0.06068898	          0.15002539	          0.11045130	          0.13050399	          0.09039860	          0.00279834	          0.00060679	          0.00979390	          0.02060032	         -0.00101252	
          0.37222224	          0.00682874	          0.00751162	          0.05538745	          0.07351909	          0.03725581	          0.07472661	          0.09571016	          0.17227682	          0.27929384	          0.06525981	          0.00738516	          0.04329799	          0.04178137	          0.06030089	          0.02326184	          0.14908110	          0.26548559	          0.10654599	          0.13341543	          0.07967656	          0.00913506	          0.03684158	          0.00659689	          0.02793162	         -0.01473784	          0.11476615	          0.22815744	          0.08319145	          0.08213993	          0.08424296	          0.00108196	          0.05236238	          0.04187868	          0.07105290	          0.01270446	          0.03001388	          0.16693647	          0.18651292	          0.37176216	          0.00126368	          0.05372950	          0.14961752	          0.10985707	          0.12911242	          0.09060173	          0.00734120	          0.00057792	          0.00981373	          0.02068264	         -0.00105518	
          0.37314814	          0.00506641	          0.00728937	          0.05487582	          0.07254116	          0.03721048	          0.04714332	          0.09565747	          0.17235801	          0.27977242	          0.06494359	          0.00201447	          0.04357636	          0.04194612	          0.06023631	          0.02365593	          0.11234323	          0.26399711	          0.10581636	          0.13202864	          0.07960409	          0.00533182	          0.03767608	          0.00691411	          0.02831638	         -0.01448815	          0.02078369	          0.22690205	          0.08347641	          0.08199534	          0.08495748	          0.00147101	          0.05251206	          0.04163028	          0.07027291	          0.01298764	          0.05548014	          0.16818564	          0.18717872	          0.37190866	          0.00244877	          0.06480566	          0.14916524	          0.10926244	          0.12772132	          0.09080355	          0.00446698	          0.00055193	          0.00983363	          0.02076493	         -0.00109767	
          0.37407407	          0.01465119	          0.00712169	          0.05436399	          0.07156226	          0.03716572	          0.07036152	          0.09554051	          0.17243916	          0.28025070	          0.06462762	          0.00767998	          0.04385979	          0.04211627	          0.06017659	          0.02405596	          0.05967284	          0.26229150	          0.10509186	          0.13064633	          0.07953739	          0.00488682	          0.03854871	          0.00723778	          0.02870578	         -0.01423023	          0.05956453	          0.22549427	          0.08376344	          0.08185318	          0.08567370	          0.00422925	          0.05264494	          0.04139045	          0.06950049	          0.01328041	          0.09939000	          0.16951700	          0.18784384	          0.37204745	          0.00364023	          0.07603124	          0.14866831	          0.10866757	          0.12633118	          0.09100397	          0.00384271	          0.00052902	          0.00985360	          0.02084718	         -0.00113998	
          0.37500000	          0.01245665	          0.00700948	          0.05385212	          0.07058273	          0.03712150	          0.11984842	          0.09536131	          0.17252028	          0.28072859	          0.06431197	          0.00978487	          0.04414949	          0.04229169	          0.06012169	          0.02446169	          0.01636384	          0.26037472	          0.10437249	          0.12926863	          0.07947635	          0.01312137	          0.03945864	          0.00756771	          0.02909968	         -0.01396425	          0.10657079	          0.22393644	          0.08405249	          0.08171351	          0.08639147	          0.00396080	          0.05276025	          0.04115919	          0.06873580	          0.01358258	          0.12475017	          0.17093679	          0.18850838	          0.37217870	          0.00483805	          0.05245136	          0.14812654	          0.10807285	          0.12494275	          0.09120296	          0.00726592	          0.00050939	          0.00987363	          0.02092937	         -0.00118210	
          0.37592593	          0.02470047	          0.00695345	          0.05334039	          0.06960294	          0.03707783	          0.12397759	          0.09512222	          0.17260140	          0.28120606	          0.06399674	          0.01317170	          0.04444666	          0.04247227	          0.06007161	          0.02487294	          0.07325598	          0.25825324	          0.10365826	          0.12789563	          0.07942088	          0.03054251	          0.04040493	          0.00790377	          0.02949792	         -0.01369039	          0.13607513	          0.22223124	          0.08434349	          0.08157630	          0.08711067	          0.01801718	          0.05285728	          0.04093646	          0.06797899	          0.01389394	          0.00363168	          0.17245121	          0.18917213	          0.37230235	          0.00604191	          0.02480969	          0.14753979	          0.10747854	          0.12355665	          0.09140043	          0.00683248	          0.00049325	          0.00989373	          0.02101148	         -0.00122402	
          0.37685186	          0.02084665	          0.00695410	          0.05282898	          0.06862327	          0.03703468	          0.07119073	          0.09482588	          0.17268243	          0.28168299	          0.06368188	          0.01677724	          0.04475255	          0.04265790	          0.06002632	          0.02528948	          0.12804992	          0.25593405	          0.10294924	          0.12652755	          0.07937093	          0.02232408	          0.04138650	          0.00824578	          0.02990037	         -0.01340881	          0.17024027	          0.22038169	          0.08463638	          0.08144159	          0.08783116	          0.02522265	          0.05293539	          0.04072222	          0.06723018	          0.01421426	          0.10802636	          0.17406637	          0.18983513	          0.37241849	          0.00725177	          0.02716212	          0.14690796	          0.10688489	          0.12217352	          0.09159626	          0.00512811	          0.00048082	          0.00991388	          0.02109350	         -0.00126575	
